<svg width="329" height="298" viewBox="0 0 329 298" fill="none" xmlns="http://www.w3.org/2000/svg">
<g clip-path="url(#clip0_1_3)">
<path d="M227.352 297.249H134C119.998 297.249 108.606 285.87 108.606 271.883V25.3659C108.606 11.3792 119.998 0 134 0H227.352C241.354 0 252.745 11.3792 252.745 25.3659C254.483 124.36 257.446 235.217 252.745 271.883C252.745 285.87 241.353 297.249 227.352 297.249Z" fill="#3F3D56"/>
<path d="M254.047 90.6772C253.454 90.6772 252.972 91.1585 252.972 91.7503V126.09C252.972 126.681 253.454 127.163 254.047 127.163C254.639 127.163 255.121 126.681 255.121 126.09V91.7503C255.121 91.1585 254.639 90.6772 254.047 90.6772Z" fill="#3F3D56"/>
<path d="M250.328 25.3661V271.879C250.328 284.053 240.842 294.012 228.848 294.784H228.843C228.666 294.795 228.489 294.806 228.306 294.811C227.989 294.827 227.672 294.833 227.35 294.833C227.35 294.833 226.168 294.747 224.009 294.586C221.828 294.425 218.654 294.184 214.695 293.867C213.508 293.776 212.257 293.674 210.935 293.567C208.303 293.352 205.414 293.116 202.314 292.848C201.079 292.746 199.801 292.633 198.495 292.52C191.824 291.946 184.353 291.275 176.473 290.514C175.141 290.39 173.798 290.261 172.445 290.127C172.09 290.09 111.024 274.755 111.024 271.879V25.3661C111.024 12.6874 121.31 2.41248 134.002 2.41248H147.72C149.912 2.41248 151.673 4.1187 151.861 6.30247C151.877 6.44735 151.894 6.5922 151.92 6.73708C152.318 8.93159 154.332 10.4607 156.567 10.4607H204.785C207.02 10.4607 209.034 8.93159 209.431 6.73708C209.458 6.5922 209.474 6.44735 209.49 6.30247C209.678 4.11871 211.44 2.41248 213.632 2.41248H227.35C240.042 2.41248 250.328 12.6874 250.328 25.3661Z" fill="white"/>
<path d="M108.069 64.9228C107.477 64.9228 106.995 65.404 106.995 65.9959V74.5807C106.995 75.1725 107.477 75.6538 108.069 75.6538C108.662 75.6538 109.144 75.1725 109.144 74.5807V65.9959C109.144 65.404 108.662 64.9228 108.069 64.9228Z" fill="#3F3D56"/>
<path d="M108.069 90.6772C107.477 90.6772 106.995 91.1585 106.995 91.7503V108.383C106.995 108.975 107.477 109.456 108.069 109.456C108.662 109.456 109.144 108.975 109.144 108.383V91.7503C109.144 91.1585 108.662 90.6772 108.069 90.6772Z" fill="#3F3D56"/>
<path d="M108.069 114.285C107.477 114.285 106.995 114.767 106.995 115.359V131.992C106.995 132.583 107.477 133.065 108.069 133.065C108.662 133.065 109.144 132.583 109.144 131.992V115.359C109.144 114.767 108.662 114.285 108.069 114.285Z" fill="#3F3D56"/>
<path d="M147.368 6.17041H126.781C126.681 6.17041 126.6 6.2512 126.6 6.35086V8.67272C126.6 8.77237 126.681 8.85316 126.781 8.85316H147.368C147.467 8.85316 147.548 8.77237 147.548 8.67272V6.35086C147.548 6.2512 147.467 6.17041 147.368 6.17041Z" fill="#E6E6E6"/>
<path d="M217.026 8.85317C218.213 8.85317 219.175 7.89228 219.175 6.70696C219.175 5.52165 218.213 4.56076 217.026 4.56076C215.84 4.56076 214.878 5.52165 214.878 6.70696C214.878 7.89228 215.84 8.85317 217.026 8.85317Z" fill="#E6E6E6"/>
<path d="M222.935 8.85317C224.121 8.85317 225.083 7.89228 225.083 6.70696C225.083 5.52165 224.121 4.56076 222.935 4.56076C221.748 4.56076 220.786 5.52165 220.786 6.70696C220.786 7.89228 221.748 8.85317 222.935 8.85317Z" fill="#E6E6E6"/>
<path d="M228.843 8.85317C230.029 8.85317 230.991 7.89228 230.991 6.70696C230.991 5.52165 230.029 4.56076 228.843 4.56076C227.656 4.56076 226.694 5.52165 226.694 6.70696C226.694 7.89228 227.656 8.85317 228.843 8.85317Z" fill="#E6E6E6"/>
<path d="M8.33546 297.308C8.33546 297.692 8.64411 298 9.02846 298H328.307C328.691 298 329 297.692 329 297.308C329 296.924 328.691 296.616 328.307 296.616H9.02846C8.64411 296.616 8.33546 296.924 8.33546 297.308Z" fill="#CCCCCC"/>
<path d="M110.136 292.761L103.588 292.761L100.474 267.533L110.137 267.534L110.136 292.761Z" fill="#FFB6B6"/>
<path d="M87.7033 292.613C87.4994 292.956 87.3919 294.063 87.3919 294.462C87.3919 295.688 88.3868 296.682 89.6141 296.682H109.891C110.728 296.682 111.407 296.004 111.407 295.167V294.324C111.407 294.324 112.41 291.789 110.345 288.666C110.345 288.666 107.778 291.112 103.943 287.28L102.812 285.234L94.6249 291.215L90.087 291.773C89.0942 291.895 88.214 291.754 87.7033 292.613Z" fill="#2F2E41"/>
<path d="M73.9273 257.721L67.3799 257.7L64.3454 232.462L74.0088 232.494L73.9273 257.721Z" fill="#FFB6B6"/>
<path d="M51.4956 257.502C51.2906 257.844 51.1796 258.951 51.1783 259.349C51.1744 260.575 52.1661 261.572 53.3934 261.576L73.6699 261.641C74.5072 261.643 75.1881 260.967 75.1908 260.131L75.1934 259.288C75.1934 259.288 76.2046 256.756 74.1494 253.626C74.1494 253.626 71.5749 256.064 67.7518 252.221L66.6274 250.17L58.4216 256.125L53.882 256.669C52.8888 256.788 52.009 256.644 51.4956 257.502Z" fill="#2F2E41"/>
<path d="M100.586 139.607L92.4338 140.188C92.4338 140.188 64.8345 155.864 62.5053 159.354C60.176 162.844 56.9733 167.788 59.8848 173.024C62.7964 178.259 60.5805 241.648 60.5805 241.648L74.4936 238.504L83.4079 172.182L102.042 169.564C102.042 169.564 108.447 183.369 106.118 194.79C103.789 206.211 102.624 213.191 102.624 213.191L99.7127 280.668L111.068 280.377L121.258 217.845L138.728 168.401L116.018 141.643L100.586 139.607Z" fill="#2F2E41"/>
<path d="M140.766 68.0583L123.879 69.8034L122.132 75.6203L105.827 84.3457L111.068 120.993L106.992 127.391L108.739 133.79C108.739 133.79 104.08 134.371 104.662 137.862L94.1807 139.607C94.1807 139.607 108.083 142.442 111.031 156.439C113.979 170.437 138.437 172.182 138.437 172.182L157.653 112.267L159.4 76.7837L146.007 73.2935L140.766 68.0583Z" fill="#E6E6E6"/>
<path d="M131.866 65.851C139.117 65.851 144.994 59.9798 144.994 52.7373C144.994 45.4948 139.117 39.6236 131.866 39.6236C124.616 39.6236 118.739 45.4948 118.739 52.7373C118.739 59.9798 124.616 65.851 131.866 65.851Z" fill="#FFB6B6"/>
<path d="M125.044 64.5681C125.044 64.5681 113.397 63.9864 114.562 54.6793C111.679 44.7682 114.231 38.3331 123.297 36.0651C123.297 36.0651 125.626 35.4834 126.208 35.4834C133.867 35.4834 137.855 37.8101 137.855 37.8101C137.855 37.8101 137.272 35.5063 137.855 36.0765C138.437 36.6468 139.019 37.8101 139.019 37.8101C139.019 37.8101 144.842 40.7186 144.842 46.5356C144.842 52.3525 144.842 50.0257 144.842 50.0257C144.842 50.0257 143.678 50.0257 142.513 46.5356C141.348 43.0454 133.808 45.3722 133.808 45.3722L134.361 46.5356L132.614 45.9539L130.867 47.699L129.702 47.1173C129.702 47.1173 125.044 47.1173 125.626 47.1173C126.208 47.1173 125.802 51.0704 125.802 51.0704L121.55 55.8427L126.208 64.5681H125.044Z" fill="#2F2E41"/>
<path d="M62.9951 133.996C59.6798 135.803 57.9256 138.977 59.077 141.084C60.2285 143.192 63.8495 143.435 67.1649 141.628C68.6161 140.836 69.7681 139.783 70.5083 138.673L84.4602 130.838L80.6401 124.376L67.2918 132.785C65.9562 132.806 64.4464 133.205 62.9951 133.996Z" fill="#FFB6B6"/>
<path d="M110.045 84.6172C110.045 84.6172 104.576 82.5371 102.692 85.041C100.807 87.5449 88.3592 117.927 88.3592 117.927L70.0955 127.455L75.2314 136.389L98.7496 128.568L114.266 100.22L110.045 84.6172Z" fill="#E6E6E6"/>
<path d="M282.511 184.396V246.056C282.511 251.508 278.07 255.944 272.611 255.944H120.044C114.586 255.944 110.145 251.508 110.145 246.056V184.396C110.145 178.943 114.586 174.507 120.044 174.507H272.611C278.07 174.507 282.511 178.943 282.511 184.396Z" fill="white"/>
<path d="M282.511 184.396V246.056C282.511 251.508 278.07 255.944 272.611 255.944H120.044C114.586 255.944 110.145 251.508 110.145 246.056V184.396C110.145 178.943 114.586 174.507 120.044 174.507H272.611C278.07 174.507 282.511 178.943 282.511 184.396ZM272.611 254.781C277.435 254.781 281.346 250.875 281.346 246.056V214.969C281.346 193.265 263.733 175.671 242.005 175.671H120.044C115.22 175.671 111.31 179.577 111.31 184.396V246.056C111.31 250.875 115.22 254.781 120.044 254.781H272.611Z" fill="#3F3D56"/>
<path d="M178.631 211.76H158.704C158.202 211.76 157.793 212.168 157.793 212.67C157.793 213.172 158.202 213.58 158.704 213.58H178.631C179.134 213.58 179.542 213.172 179.542 212.67C179.542 212.168 179.134 211.76 178.631 211.76Z" fill="#FD7C27"/>
<path d="M208.912 211.76H188.985C188.482 211.76 188.074 212.168 188.074 212.67C188.074 213.172 188.482 213.58 188.985 213.58H208.912C209.414 213.58 209.823 213.172 209.823 212.67C209.823 212.168 209.414 211.76 208.912 211.76Z" fill="#6C63FF"/>
<path d="M178.631 221.71H158.704C158.202 221.71 157.793 222.118 157.793 222.62C157.793 223.122 158.202 223.531 158.704 223.531H178.631C179.134 223.531 179.542 223.122 179.542 222.62C179.542 222.118 179.134 221.71 178.631 221.71Z" fill="#FD7C27"/>
<path d="M208.912 221.71H188.985C188.482 221.71 188.074 222.118 188.074 222.62C188.074 223.122 188.482 223.531 188.985 223.531H208.912C209.414 223.531 209.823 223.122 209.823 222.62C209.823 222.118 209.414 221.71 208.912 221.71Z" fill="#6C63FF"/>
<path d="M240.103 222.62C240.103 222.118 239.695 221.71 239.192 221.71H219.265C218.763 221.71 218.354 222.118 218.354 222.62C218.354 223.122 218.763 223.531 219.265 223.531H239.192C239.695 223.531 240.103 223.122 240.103 222.62Z" fill="#6C63FF"/>
<path d="M166.985 203.815C167.487 203.815 167.896 203.406 167.896 202.904C167.896 202.403 167.487 201.994 166.985 201.994H147.058C146.555 201.994 146.147 202.403 146.147 202.904C146.147 203.406 146.555 203.815 147.058 203.815H166.985Z" fill="#FD7C27"/>
<path d="M225.671 203.444H245.598C246.1 203.444 246.509 203.036 246.509 202.534C246.509 202.032 246.1 201.624 245.598 201.624H225.671C225.168 201.624 224.759 202.032 224.759 202.534C224.759 203.036 225.168 203.444 225.671 203.444Z" fill="#6C63FF"/>
<path d="M175.38 203.636H216.693C217.196 203.636 217.604 203.228 217.604 202.726C217.604 202.224 217.196 201.816 216.693 201.816H175.38C174.878 201.816 174.469 202.224 174.469 202.726C174.469 203.228 174.878 203.636 175.38 203.636Z" fill="#6C63FF"/>
<path d="M191.635 230.751H171.708C171.205 230.751 170.796 231.159 170.796 231.661C170.796 232.163 171.205 232.571 171.708 232.571H191.635C192.137 232.571 192.546 232.163 192.546 231.661C192.546 231.159 192.137 230.751 191.635 230.751Z" fill="#FD7C27"/>
<path d="M255.993 183.931V245.591C255.993 251.044 251.552 255.48 246.094 255.48H184.368C178.909 255.48 174.469 251.044 174.469 245.591V183.931C174.469 178.478 178.909 174.042 184.368 174.042H246.094C251.552 174.042 255.993 178.478 255.993 183.931Z" fill="white"/>
<path d="M255.993 183.931V245.591C255.993 251.044 251.552 255.48 246.094 255.48H184.368C178.909 255.48 174.469 251.044 174.469 245.591V183.931C174.469 178.478 178.909 174.042 184.368 174.042H246.094C251.552 174.042 255.993 178.478 255.993 183.931ZM242.265 254.316C249.203 254.316 254.828 248.697 254.828 241.766V214.504C254.828 192.8 237.215 175.206 215.488 175.206H184.368C179.544 175.206 175.633 179.112 175.633 183.931V236.988C175.633 246.558 183.4 254.316 192.98 254.316L242.265 254.316Z" fill="#3F3D56"/>
<path d="M223.448 199.225H203.52C203.018 199.225 202.609 198.817 202.609 198.315C202.609 197.813 203.018 197.405 203.52 197.405H223.448C223.95 197.405 224.359 197.813 224.359 198.315C224.359 198.817 223.95 199.225 223.448 199.225Z" fill="#FD7C27"/>
<path d="M223.448 218.633H203.52C203.018 218.633 202.609 218.224 202.609 217.722C202.609 217.221 203.018 216.812 203.52 216.812H223.448C223.95 216.812 224.359 217.221 224.359 217.722C224.359 218.224 223.95 218.633 223.448 218.633Z" fill="#FD7C27"/>
<path d="M213.548 245.391H193.621C193.119 245.391 192.71 244.982 192.71 244.48C192.71 243.979 193.119 243.57 193.621 243.57H213.548C214.051 243.57 214.459 243.979 214.459 244.48C214.459 244.982 214.051 245.391 213.548 245.391Z" fill="#FD7C27"/>
<path d="M234.141 208.935H192.827C192.325 208.935 191.916 208.527 191.916 208.025C191.916 207.523 192.325 207.115 192.827 207.115H234.141C234.643 207.115 235.052 207.523 235.052 208.025C235.052 208.527 234.643 208.935 234.141 208.935Z" fill="#FD7C27"/>
<path d="M244.379 149.764C244.379 130.529 228.104 119.948 209.514 114.936C185.679 108.511 168.223 121.513 174.648 149.764C176.105 156.167 179.588 163.645 183.899 170.042H218.113C229.541 162.61 244.379 164.694 244.379 149.764Z" fill="#FD7C27"/>
<path d="M209.002 186.126C210.948 182.42 213.415 179.746 216.134 177.71H184.089C192.337 189.479 203.275 197.032 209.002 186.126Z" fill="#FD7C27"/>
<path d="M205.304 129.172C207.361 129.172 209.029 130.838 209.029 132.893V140.335H201.579V132.893C201.579 130.838 203.247 129.172 205.304 129.172ZM210.892 140.335V132.893C210.892 129.811 208.39 127.312 205.304 127.312C202.218 127.312 199.717 129.811 199.717 132.893V140.335C197.659 140.335 195.992 142.001 195.992 144.056V153.359C195.992 155.414 197.659 157.08 199.717 157.08H210.892C212.949 157.08 214.617 155.414 214.617 153.359V144.056C214.617 142.001 212.949 140.335 210.892 140.335ZM199.717 142.196H210.892C211.92 142.196 212.754 143.029 212.754 144.056V153.359C212.754 154.386 211.92 155.219 210.892 155.219H199.717C198.688 155.219 197.854 154.386 197.854 153.359V144.056C197.854 143.029 198.688 142.196 199.717 142.196Z" fill="white"/>
<path d="M152.072 172.498C151.623 176.244 153.194 179.512 155.58 179.798C157.967 180.083 160.265 177.278 160.715 173.532C160.911 171.892 160.721 170.344 160.244 169.097L161.948 153.2L154.463 152.56L153.578 168.299C152.82 169.398 152.269 170.858 152.072 172.498Z" fill="#FFB6B6"/>
<path d="M153.868 77.6562C153.868 77.6562 162.021 75.3295 163.768 78.8196C165.515 82.3098 169.591 128.264 169.591 128.264L161.729 164.945L152.704 162.584L157.362 125.355L150.957 97.4339L153.868 77.6562Z" fill="#E6E6E6"/>
<path d="M34.0655 189.248C52.8794 189.248 68.1311 174.013 68.1311 155.219C68.1311 136.425 52.8794 121.19 34.0655 121.19C15.2517 121.19 0 136.425 0 155.219C0 174.013 15.2517 189.248 34.0655 189.248Z" fill="#FD7C27"/>
<path d="M34.0655 139.985C36.472 139.985 38.4228 141.934 38.4228 144.338V153.043H29.7083V144.338C29.7083 141.934 31.6591 139.985 34.0655 139.985ZM40.6014 153.043V144.338C40.6014 140.732 37.6752 137.809 34.0655 137.809C30.4559 137.809 27.5297 140.732 27.5297 144.338V153.043C25.1233 153.043 23.1725 154.992 23.1725 157.395V168.277C23.1725 170.681 25.1233 172.629 27.5297 172.629H40.6014C43.0078 172.629 44.9586 170.681 44.9586 168.277V157.395C44.9586 154.992 43.0078 153.043 40.6014 153.043ZM27.5297 155.219H40.6014C41.8046 155.219 42.78 156.194 42.78 157.395V168.277C42.78 169.479 41.8046 170.453 40.6014 170.453H27.5297C26.3265 170.453 25.3511 169.479 25.3511 168.277V157.395C25.3511 156.194 26.3265 155.219 27.5297 155.219Z" fill="white"/>
</g>
<defs>
<clipPath id="clip0_1_3">
<rect width="329" height="298" fill="white"/>
</clipPath>
</defs>
</svg>
