<svg width="398" height="305" viewBox="0 0 398 305" fill="none" xmlns="http://www.w3.org/2000/svg">
<g clip-path="url(#clip0_5_60)">
<path opacity="0.1" d="M67.9339 44.8495C65.8042 47.4334 64.9841 51.0663 64.0669 54.4816C56.6828 82.0061 38.4868 104.145 17.7646 119.959C8.9892 126.658 -1.69445 135.641 0.225419 147.651C1.2592 154.101 5.7946 158.849 9.16409 164.102C16.2334 175.101 18.5264 190.053 15.1569 203.22C11.3249 218.203 0.614056 232.183 3.92914 247.332C5.97337 256.657 12.9144 263.293 19.5874 268.997C29.9977 277.89 40.7396 286.22 51.8132 293.988C59.2362 299.195 67.1333 304.262 75.7844 304.922C83.4017 305.505 90.8635 302.61 98.0961 299.754C104.415 297.256 110.894 294.657 115.997 289.652C119.327 286.385 121.982 282.169 125.682 279.496C134.372 273.217 145.533 277.196 155.498 279.884C179.01 286.194 204.175 283.89 226.549 273.38C260.869 257.255 287.028 223.394 320.599 205.225C335.033 197.412 350.734 192.563 364.099 182.499C371.629 176.77 378.1 169.769 383.22 161.813C393.325 146.229 398.789 126.359 397.211 106.908C395.633 87.4574 386.792 68.714 372.906 57.7337C358.04 45.9802 339.265 43.7849 322.352 36.729C304.894 29.4321 289.356 16.8976 272.066 9.08398C258.066 2.77149 242.83 -0.326669 227.476 0.0169009C212.122 0.360471 197.039 4.13705 183.336 11.0694C164.506 20.5888 145.428 42.798 124.457 44.4843C109.518 45.6499 79.6008 30.6987 67.9339 44.8495Z" fill="#6C63FF"/>
<path opacity="0.1" d="M209.842 229.79C315.403 219.497 399.634 197.383 397.977 180.395C396.32 163.407 309.402 157.98 203.841 168.272C98.2807 178.564 14.0501 200.678 15.7072 217.666C17.3643 234.654 104.282 240.082 209.842 229.79Z" fill="#6C63FF"/>
<path d="M381.343 183.102C388.529 168.376 387.044 144.407 386.279 136.27C386.112 134.491 385.979 133.469 385.979 133.469C385.979 133.469 379.645 132.471 381.98 124.805C383.123 121.051 379.066 118.976 374.635 117.838C371.467 117.081 368.235 116.624 364.981 116.474L303.619 112.686C295.205 99.3354 278.649 101.48 278.649 101.48C278.649 101.48 263.881 99.9454 253.411 99.7861C251.822 98.3865 250.081 97.1705 248.219 96.161C247.11 95.4946 245.929 94.9563 244.698 94.5563C243.202 94.1247 241.625 94.0493 240.095 94.336C238.564 94.6227 237.122 95.2637 235.884 96.2076C235.28 96.6417 234.789 97.213 234.45 97.8745C234.319 98.1752 234.221 98.4892 234.158 98.8109C234 99.3595 233.871 99.9158 233.769 100.478C233.678 100.748 233.547 101.004 233.381 101.235C232.961 101.83 232.238 102.277 232.145 102.995C232.143 103.037 232.143 103.078 232.145 103.12C232.068 103.257 232.017 103.407 231.993 103.563C231.965 103.883 232.034 104.204 232.192 104.484C232.215 104.53 232.242 104.573 232.269 104.616C231.753 105.364 231.331 106.173 231.014 107.025C230.87 107.103 230.731 107.19 230.598 107.285L230.482 107.371V107.608L230.416 107.658L230.272 111.485L230.353 111.547C230.471 113.333 231.01 115.065 231.926 116.602C232.842 118.139 234.109 119.437 235.623 120.391C235.674 120.635 235.72 120.884 235.767 121.144C235.981 122.399 236.077 123.672 236.055 124.944H235.989C234.162 124.167 231.037 125.31 228.352 126.642H193.561C200.347 117.916 208.648 111.147 208.648 111.147V103.477C202.717 103.182 150.617 128.204 139.194 133.729L138.689 133.974L79.9855 135.793C69.3524 135.727 60.0562 137.288 52.0036 139.833C38.5473 144.059 26.4552 151.783 16.964 162.214C10.0307 169.821 6.99159 176.108 6.99159 176.108L7.05766 176.636L6.99159 176.772L7.08486 176.854L8.66662 189.334L9.75481 197.921C2.19192 202.809 11.9895 204.767 11.9895 204.767C21.3168 212.763 36.3221 212.433 36.3221 212.433C39.9869 217.434 50.655 216.765 50.655 216.765H106.654C107.526 211.625 108.694 206.54 110.152 201.534C112.542 218.743 126.125 231.926 142.517 231.926C143.733 231.926 144.948 231.852 146.155 231.705C147.362 231.852 148.577 231.926 149.793 231.926C166.376 231.926 180.079 218.432 182.236 200.936H184.976C184.464 204.845 183.576 208.695 182.322 212.433C232.654 197.769 326.32 190.772 326.32 190.772C326.708 187.081 327.136 183.514 327.598 180.091C331.457 189.668 340.206 196.355 350.388 196.355C351.313 196.354 352.237 196.297 353.155 196.184C354.073 196.297 354.997 196.354 355.922 196.355C368.013 196.355 378.075 186.925 380.344 174.422C380.645 176.628 380.816 178.851 380.857 181.077C380.426 183.199 380.049 184.555 379.998 184.745C380.301 184.191 380.589 183.624 380.861 183.044C380.861 183.269 380.861 183.502 380.861 183.735C380.768 184.124 380.702 184.341 380.682 184.415L380.853 184.096C380.853 184.267 380.853 184.435 380.853 184.605C380.814 184.621 381.02 184.062 381.343 183.102Z" fill="url(#paint0_linear_5_60)"/>
<path d="M375.471 130.19H260.084V176.726H375.471V130.19Z" fill="#6F7D95"/>
<path d="M230.746 108.396L247.135 145.102L279.59 143.136L280.9 128.061L281.883 110.362L235.992 107.083L230.746 108.396Z" fill="#4B5C7A"/>
<path d="M230.746 108.396C230.746 108.396 236.964 102.498 244.515 101.185C252.067 99.8716 277.297 102.494 277.297 102.494L280.903 108.711L280.227 111.672L230.746 108.396Z" fill="#FF4D52"/>
<path d="M292.535 127.241H176.166V161.324H292.535V127.241Z" fill="#4B5C7A"/>
<path d="M263.904 150.429C266.979 140.152 260.85 133.399 260.85 133.399L250.691 126.312C250.682 126.336 250.672 126.36 250.66 126.382C249.338 124.834 248.393 123.002 247.896 121.028C247.865 120.904 247.838 120.775 247.807 120.639C248.736 119.949 249.549 119.117 250.217 118.172C251.872 117.158 252.611 115.526 252.89 113.898C253.955 112.318 254.804 110.602 255.413 108.796C255.513 108.504 255.599 108.207 255.669 107.907C255.865 107.347 255.952 106.755 255.926 106.162C255.843 105.502 255.623 104.867 255.281 104.297C253.571 101.189 250.493 99.0246 247.372 97.2606C246.281 96.6055 245.119 96.0763 243.909 95.6831C242.438 95.2591 240.888 95.1851 239.383 95.4672C237.878 95.7492 236.46 96.3793 235.242 97.3072C234.649 97.7341 234.165 98.2962 233.832 98.9469C233.703 99.2426 233.607 99.5513 233.544 99.8677C233.393 100.408 233.27 100.955 233.175 101.507C233.09 101.771 232.967 102.021 232.81 102.249C232.394 102.832 231.686 103.271 231.593 103.982C231.591 104.024 231.591 104.065 231.593 104.107C231.518 104.242 231.468 104.389 231.445 104.542C231.417 104.856 231.484 105.172 231.64 105.447C231.663 105.494 231.69 105.537 231.717 105.579C231.209 106.315 230.794 107.111 230.482 107.949C230.339 108.026 230.202 108.112 230.07 108.206L229.957 108.287V108.521L229.891 108.571L229.747 112.336L229.825 112.398C229.94 114.154 230.469 115.858 231.369 117.37C232.27 118.883 233.516 120.16 235.005 121.098C235.056 121.339 235.102 121.583 235.145 121.84C235.38 123.196 235.474 124.572 235.425 125.947C235.41 125.828 235.41 125.708 235.425 125.589C232.615 124.319 226.486 127.831 224.019 129.385C223.644 129.563 223.296 129.789 222.981 130.058L222.938 130.089C221.24 131.464 217.886 135.287 215.224 145.114C211.532 158.826 211.916 161.934 209.227 165.112C206.538 168.29 203.868 190.682 203.868 190.682L209.281 192.139L209.973 189.917C216.409 195.784 234.43 198.609 234.43 198.609L234.982 196.895C237.745 197.89 242.366 196.378 242.366 196.378C249.121 193.993 251.651 187.939 256.551 179.955C261.452 171.97 263.904 150.429 263.904 150.429ZM236.661 191.743L249.136 153.056C250.267 159.063 245.277 168.524 244.834 174.709C244.558 178.688 239.925 186.595 236.661 191.743Z" fill="url(#paint1_linear_5_60)"/>
<path d="M252.269 109.721C252.269 109.721 254.441 117.993 247.994 119.435C241.546 120.876 245.794 115.716 245.794 115.716L252.012 109.659L252.269 109.721Z" fill="#472727"/>
<path d="M225.313 129.436C225.313 129.436 220.517 131.379 216.992 144.465C213.467 157.551 213.817 160.504 211.279 163.546C208.741 166.589 206.141 187.935 206.141 187.935L211.217 189.303L215.636 175.036L227.788 137.347L225.313 129.436Z" fill="#DDE0E4"/>
<path opacity="0.05" d="M225.313 129.436C225.313 129.436 220.517 131.379 216.992 144.465C213.467 157.551 213.817 160.504 211.279 163.546C208.741 166.589 206.141 187.935 206.141 187.935L211.217 189.303L215.636 175.036L227.788 137.347L225.313 129.436Z" fill="black"/>
<path d="M251.942 127.959C251.942 127.959 231.865 138.163 234.803 131.507C236.257 128.22 236.202 124.812 235.779 122.182C235.537 120.632 235.113 119.117 234.516 117.667C234.516 117.667 248.165 106.873 247.364 115.685C247.172 117.582 247.304 119.498 247.753 121.35C248.934 126.025 251.942 127.959 251.942 127.959Z" fill="#DB8B8B"/>
<path opacity="0.1" d="M247.753 121.366C246.462 122.403 244.943 123.119 243.322 123.457C241.701 123.794 240.023 123.744 238.425 123.309C237.491 123.057 236.595 122.68 235.763 122.186C235.521 120.636 235.097 119.121 234.5 117.671C234.5 117.671 248.149 106.877 247.348 115.689C247.161 117.591 247.297 119.51 247.753 121.366Z" fill="black"/>
<path d="M251.465 115.374C252.974 109.771 249.654 104.006 244.05 102.497C238.446 100.989 232.679 104.308 231.17 109.911C229.661 115.514 232.981 121.279 238.585 122.787C244.19 124.296 249.956 120.977 251.465 115.374Z" fill="#DB8B8B"/>
<path opacity="0.1" d="M236.039 107.518C235.751 107.694 235.43 107.81 235.096 107.859C234.761 107.908 234.421 107.889 234.094 107.803C233.767 107.717 233.461 107.566 233.194 107.359C232.928 107.152 232.706 106.893 232.541 106.597C232.397 106.334 232.335 106.034 232.363 105.735C232.452 105.059 233.12 104.639 233.529 104.08C234.162 103.174 234.042 101.935 234.5 100.928C234.816 100.314 235.271 99.7816 235.829 99.3743C236.965 98.4866 238.295 97.8802 239.71 97.6047C241.125 97.3291 242.585 97.3923 243.971 97.789C245.105 98.1589 246.193 98.6582 247.212 99.2771C250.135 100.944 253.015 102.984 254.597 105.948C254.917 106.492 255.121 107.097 255.195 107.724C255.213 108.401 255.094 109.075 254.845 109.706C254.261 111.447 253.446 113.103 252.424 114.629C252.082 114.204 251.653 113.858 251.165 113.614C250.919 113.498 250.642 113.462 250.374 113.512C250.106 113.561 249.861 113.694 249.673 113.89C249.334 114.322 249.128 115.145 248.615 114.951C248.281 114.827 248.285 114.364 248.301 114.007C248.371 112.453 247.523 110.988 246.385 109.939C245.246 108.89 243.835 108.198 242.444 107.518C241.445 107.029 240.112 105.906 239.016 105.708C237.656 105.455 237.015 106.916 236.039 107.518Z" fill="black"/>
<path d="M236.183 106.986C235.895 107.162 235.574 107.278 235.239 107.327C234.905 107.376 234.564 107.357 234.238 107.271C233.911 107.185 233.605 107.034 233.338 106.826C233.071 106.619 232.849 106.36 232.685 106.065C232.541 105.802 232.479 105.501 232.506 105.202C232.596 104.526 233.264 104.107 233.672 103.547C234.306 102.642 234.185 101.402 234.644 100.396C234.96 99.7815 235.415 99.2493 235.973 98.842C237.109 97.9543 238.439 97.3479 239.854 97.0724C241.269 96.7968 242.729 96.86 244.115 97.2567C245.249 97.6266 246.337 98.1259 247.356 98.7448C250.279 100.412 253.159 102.452 254.74 105.416C255.061 105.96 255.265 106.565 255.339 107.192C255.356 107.869 255.237 108.543 254.989 109.173C254.405 110.915 253.59 112.57 252.568 114.096C252.226 113.672 251.796 113.326 251.309 113.082C251.062 112.966 250.786 112.93 250.518 112.979C250.25 113.029 250.005 113.161 249.816 113.358C249.478 113.789 249.272 114.613 248.759 114.419C248.425 114.294 248.429 113.832 248.444 113.475C248.514 111.92 247.667 110.456 246.528 109.406C245.39 108.357 243.979 107.666 242.588 106.986C241.589 106.496 240.256 105.373 239.16 105.175C237.8 104.919 237.158 106.384 236.183 106.986Z" fill="#472727"/>
<path d="M241.686 129.35C241.686 129.35 249.999 127.722 250.36 126.39L259.866 133.1C259.866 133.1 265.587 139.507 262.661 149.314C262.661 149.314 260.278 169.864 255.646 177.491C251.013 185.118 248.351 194.999 242.005 197.307C242.005 197.307 235.903 193.375 233.89 193.422C233.89 193.422 244.224 178.451 244.667 172.557C245.11 166.662 249.832 157.625 248.798 151.906L234.807 195.384C234.807 195.384 212.266 191.887 209.981 184.407C209.981 184.407 211.924 181.489 211.563 178.533C211.201 175.576 220.066 153.331 220.066 153.331L224.31 130.135C224.31 130.135 232.705 124.272 236.047 125.795C236.031 125.772 235.425 128.667 241.686 129.35Z" fill="#DDE0E4"/>
<g opacity="0.1">
<path d="M244.714 111.314C242.662 108.517 238.748 110.813 238.107 111.213L237.1 111.112C236.222 110.156 233.529 107.615 230.999 109.484L230.89 109.566L230.738 113.152L230.847 113.238C231.578 113.802 232.406 114.226 233.291 114.489C233.852 114.653 234.443 114.683 235.017 114.574C235.442 114.476 235.84 114.286 236.183 114.018C236.526 113.749 236.806 113.409 237.003 113.02L237.528 113.055L237.916 112.981C237.994 113.394 238.159 113.786 238.4 114.131C238.642 114.475 238.954 114.764 239.315 114.978C241.053 115.961 243.59 114.978 243.695 114.959L243.827 114.908L244.76 111.439L244.714 111.314ZM243.396 114.469C242.879 114.644 240.928 115.219 239.618 114.469C239.292 114.265 239.018 113.988 238.815 113.661C238.613 113.333 238.489 112.964 238.453 112.581L238.406 112.297L237.555 112.472L236.7 112.441L236.618 112.604C236.462 112.957 236.227 113.27 235.931 113.518C235.636 113.765 235.287 113.942 234.912 114.034C233.447 114.349 231.752 113.214 231.309 112.892L231.438 109.861C233.637 108.381 236.062 110.782 236.762 111.567L236.836 111.648L238.254 111.788L238.34 111.73C238.379 111.707 241.904 109.34 243.913 111.244C244.013 111.337 244.105 111.437 244.189 111.543L243.396 114.469Z" fill="black"/>
<path d="M251.079 113.117L244.473 112.569L243.928 112.464L244.173 111.547C244.089 111.441 243.997 111.341 243.897 111.248L244.698 111.326L250.104 111.854L251.079 113.117Z" fill="black"/>
</g>
<path d="M244.784 111.066C242.731 108.268 238.818 110.564 238.177 110.965L237.17 110.864C236.292 109.908 233.599 107.367 231.068 109.236L230.96 109.317L230.808 112.903L230.917 112.989C231.648 113.553 232.476 113.977 233.361 114.24C233.922 114.405 234.513 114.434 235.087 114.325C235.512 114.228 235.91 114.038 236.253 113.769C236.596 113.5 236.876 113.16 237.073 112.771L237.598 112.806L237.986 112.732C238.064 113.146 238.229 113.537 238.47 113.882C238.712 114.226 239.023 114.515 239.385 114.73C241.123 115.713 243.66 114.73 243.765 114.71L243.897 114.66L244.83 111.19L244.784 111.066ZM243.466 114.221C242.949 114.395 240.998 114.97 239.688 114.221C239.362 114.016 239.088 113.74 238.885 113.412C238.683 113.085 238.559 112.715 238.523 112.332L238.476 112.049L237.625 112.223L236.781 112.169L236.7 112.332C236.547 112.687 236.314 113.002 236.019 113.253C235.725 113.503 235.376 113.683 235.001 113.778C233.536 114.092 231.842 112.958 231.399 112.635L231.527 109.605C233.727 108.124 236.152 110.525 236.851 111.31L236.925 111.392L238.344 111.532L238.429 111.474C238.468 111.45 241.993 109.084 244.002 110.988C244.102 111.08 244.194 111.18 244.278 111.287L243.466 114.221Z" fill="#472727"/>
<path d="M251.142 112.868L244.558 112.321L244.014 112.216L244.259 111.299C244.175 111.192 244.083 111.092 243.983 111L244.784 111.077L250.189 111.606L251.142 112.868Z" fill="#472727"/>
<path d="M205.994 153.786H90.607V200.322H205.994V153.786Z" fill="#6F7D95"/>
<path d="M143.415 230.8C161.198 230.8 175.614 215.027 175.614 195.57C175.614 176.114 161.198 160.341 143.415 160.341C125.632 160.341 111.216 176.114 111.216 195.57C111.216 215.027 125.632 230.8 143.415 230.8Z" fill="#4B5C7A"/>
<path opacity="0.05" d="M143.415 230.8C161.198 230.8 175.614 215.027 175.614 195.57C175.614 176.114 161.198 160.341 143.415 160.341C125.632 160.341 111.216 176.114 111.216 195.57C111.216 215.027 125.632 230.8 143.415 230.8Z" fill="black"/>
<path d="M150.57 230.8C168.353 230.8 182.769 215.027 182.769 195.57C182.769 176.114 168.353 160.341 150.57 160.341C132.787 160.341 118.371 176.114 118.371 195.57C118.371 215.027 132.787 230.8 150.57 230.8Z" fill="#4B5C7A"/>
<path opacity="0.05" d="M149.855 210.055C157.758 210.055 164.164 203.65 164.164 195.749C164.164 187.848 157.758 181.443 149.855 181.443C141.952 181.443 135.545 187.848 135.545 195.749C135.545 203.65 141.952 210.055 149.855 210.055Z" fill="black"/>
<path d="M149.855 200.042C152.227 200.042 154.149 198.12 154.149 195.749C154.149 193.378 152.227 191.456 149.855 191.456C147.483 191.456 145.56 193.378 145.56 195.749C145.56 198.12 147.483 200.042 149.855 200.042Z" stroke="#6F7D95" stroke-width="2" stroke-miterlimit="10"/>
<path d="M149.855 189.311C150.447 189.311 150.927 188.831 150.927 188.238C150.927 187.646 150.447 187.166 149.855 187.166C149.262 187.166 148.782 187.646 148.782 188.238C148.782 188.831 149.262 189.311 149.855 189.311Z" fill="#6F7D95"/>
<path d="M156.414 191.131C156.868 190.75 156.927 190.074 156.546 189.62C156.165 189.166 155.489 189.107 155.035 189.488C154.581 189.868 154.522 190.545 154.903 190.999C155.283 191.452 155.96 191.511 156.414 191.131Z" fill="#6F7D95"/>
<path d="M158.975 196.324C159.078 195.74 158.688 195.184 158.105 195.081C157.521 194.978 156.965 195.368 156.862 195.951C156.759 196.534 157.149 197.091 157.732 197.193C158.316 197.296 158.872 196.907 158.975 196.324Z" fill="#6F7D95"/>
<path d="M155.388 202.492C155.901 202.196 156.077 201.54 155.781 201.027C155.485 200.514 154.829 200.338 154.316 200.634C153.803 200.93 153.627 201.586 153.923 202.099C154.219 202.612 154.875 202.788 155.388 202.492Z" fill="#6F7D95"/>
<path d="M149.741 203.072C149.944 202.516 149.657 201.9 149.1 201.698C148.543 201.495 147.928 201.782 147.725 202.339C147.522 202.895 147.809 203.511 148.366 203.713C148.923 203.916 149.538 203.629 149.741 203.072Z" fill="#6F7D95"/>
<path d="M144.289 199.76C144.845 199.558 145.132 198.942 144.93 198.386C144.727 197.829 144.112 197.542 143.555 197.745C142.998 197.947 142.711 198.563 142.914 199.119C143.116 199.676 143.732 199.963 144.289 199.76Z" fill="#6F7D95"/>
<path d="M144.789 193.061C145.085 192.548 144.909 191.892 144.396 191.596C143.883 191.3 143.227 191.475 142.931 191.988C142.635 192.501 142.811 193.157 143.324 193.453C143.837 193.749 144.493 193.574 144.789 193.061Z" fill="#6F7D95"/>
<path d="M381.93 168.345C380.83 175.937 377.771 184.248 377.771 184.248C377.792 183.73 377.805 183.218 377.81 182.713C377.81 182.061 377.81 181.416 377.81 180.771C377.422 159.844 366.015 146.932 358.658 140.75C356.746 139.121 354.689 137.67 352.514 136.414H372.509C372.509 136.414 380.375 152.473 382.015 160.337C382.489 162.544 382.357 165.392 381.93 168.345Z" fill="#FF4D52"/>
<path opacity="0.05" d="M381.93 168.345C380.83 175.937 377.771 184.248 377.771 184.248C377.792 183.73 377.805 183.218 377.81 182.713C377.81 182.061 377.81 181.416 377.81 180.771C377.422 159.844 366.015 146.932 358.658 140.75C356.746 139.121 354.689 137.67 352.514 136.414H372.509C372.509 136.414 380.375 152.473 382.015 160.337C382.489 162.544 382.357 165.392 381.93 168.345Z" fill="black"/>
<path d="M347.839 195.819C361.363 195.819 372.327 183.823 372.327 169.025C372.327 154.227 361.363 142.231 347.839 142.231C334.314 142.231 323.35 154.227 323.35 169.025C323.35 183.823 334.314 195.819 347.839 195.819Z" fill="#4B5C7A"/>
<path opacity="0.05" d="M347.839 195.819C361.363 195.819 372.327 183.823 372.327 169.025C372.327 154.227 361.363 142.231 347.839 142.231C334.314 142.231 323.35 154.227 323.35 169.025C323.35 183.823 334.314 195.819 347.839 195.819Z" fill="black"/>
<path d="M353.279 195.819C366.804 195.819 377.768 183.823 377.768 169.025C377.768 154.227 366.804 142.231 353.279 142.231C339.755 142.231 328.791 154.227 328.791 169.025C328.791 183.823 339.755 195.819 353.279 195.819Z" fill="#4B5C7A"/>
<path opacity="0.05" d="M352.735 180.04C358.745 180.04 363.617 175.169 363.617 169.161C363.617 163.152 358.745 158.282 352.735 158.282C346.725 158.282 341.854 163.152 341.854 169.161C341.854 175.169 346.725 180.04 352.735 180.04Z" fill="black"/>
<path d="M352.735 172.425C354.538 172.425 356 170.963 356 169.161C356 167.358 354.538 165.897 352.735 165.897C350.932 165.897 349.471 167.358 349.471 169.161C349.471 170.963 350.932 172.425 352.735 172.425Z" stroke="#6F7D95" stroke-width="2" stroke-miterlimit="10"/>
<path d="M352.735 164.265C353.186 164.265 353.552 163.9 353.552 163.449C353.552 162.999 353.186 162.633 352.735 162.633C352.285 162.633 351.919 162.999 351.919 163.449C351.919 163.9 352.285 164.265 352.735 164.265Z" fill="#6F7D95"/>
<path d="M357.727 165.649C358.072 165.359 358.117 164.844 357.827 164.499C357.537 164.154 357.023 164.109 356.677 164.398C356.332 164.688 356.287 165.203 356.577 165.548C356.866 165.893 357.381 165.938 357.727 165.649Z" fill="#6F7D95"/>
<path d="M359.671 169.601C359.75 169.157 359.453 168.734 359.009 168.656C358.565 168.578 358.142 168.874 358.064 169.318C357.986 169.762 358.282 170.185 358.726 170.263C359.17 170.341 359.593 170.045 359.671 169.601Z" fill="#6F7D95"/>
<path d="M356.947 174.291C357.338 174.066 357.471 173.567 357.246 173.177C357.021 172.787 356.521 172.653 356.131 172.878C355.741 173.104 355.607 173.603 355.832 173.993C356.058 174.383 356.557 174.517 356.947 174.291Z" fill="#6F7D95"/>
<path d="M352.651 174.732C352.805 174.308 352.587 173.84 352.163 173.686C351.739 173.532 351.271 173.75 351.117 174.174C350.963 174.597 351.181 175.065 351.605 175.219C352.028 175.373 352.497 175.155 352.651 174.732Z" fill="#6F7D95"/>
<path d="M348.502 172.209C348.926 172.055 349.144 171.587 348.99 171.164C348.836 170.74 348.368 170.522 347.944 170.676C347.521 170.83 347.302 171.298 347.456 171.722C347.611 172.145 348.079 172.364 348.502 172.209Z" fill="#6F7D95"/>
<path d="M348.888 167.115C349.113 166.725 348.979 166.226 348.589 166.001C348.199 165.776 347.7 165.909 347.474 166.3C347.249 166.69 347.383 167.189 347.773 167.414C348.163 167.639 348.662 167.506 348.888 167.115Z" fill="#6F7D95"/>
<path d="M13.0854 199.176L10.124 175.906H45.1986L63.2275 191.964L54.3782 212.612C54.3782 212.612 18.6741 206.714 13.0854 199.176Z" fill="#FF4D52"/>
<path opacity="0.05" d="M63.2391 191.965L54.3898 212.612C54.3898 212.612 18.674 206.714 13.0854 199.176L12.9572 198.162L10.2367 176.644L10.2095 176.43L10.1434 175.91H45.218L63.2391 191.965Z" fill="black"/>
<path d="M208.458 104.464V112.002C208.458 112.002 190.331 126.767 186.018 140.696C185.265 142.958 184.98 145.349 185.182 147.725C186.822 163.127 137.986 135.268 137.986 135.268L140.158 134.211C151.386 128.799 202.624 104.169 208.458 104.464Z" fill="#7597CE"/>
<path d="M249.762 140.844C249.762 140.844 266.738 132.505 269.462 126.335C269.827 125.508 270.173 124.672 270.577 123.86C272.26 120.476 275.797 112.538 274.017 108.727C271.724 103.811 279.59 109.383 279.59 109.383L275 132.645L263.854 138.862L249.432 140.844" fill="#FF4D52"/>
<path opacity="0.05" d="M249.762 140.844C249.762 140.844 266.738 132.505 269.462 126.335C269.827 125.508 270.173 124.672 270.577 123.86C272.26 120.476 275.797 112.538 274.017 108.727C271.724 103.811 279.59 109.383 279.59 109.383L275 132.645L263.854 138.862L249.432 140.844" fill="black"/>
<path opacity="0.05" d="M63.2391 191.965L54.3898 212.612C54.3898 212.612 18.674 206.714 13.0854 199.176L12.9572 198.162C13.101 198.065 13.2525 197.964 13.4119 197.867C13.4119 197.867 24.2277 206.387 48.8168 208.357C48.8168 208.357 63.585 196.557 39.6372 183.451C39.6372 183.451 18.8062 184.104 10.2251 176.648L10.1318 176.57L10.1978 176.434C10.2548 176.323 10.3468 176.149 10.4738 175.914H45.2063L63.2391 191.965Z" fill="black"/>
<path opacity="0.05" d="M185.182 147.721C186.822 163.127 137.986 135.268 137.986 135.268L140.158 134.211C141.596 135.742 147.336 140.906 158.813 140.346C166.197 139.985 177.409 140.315 186.037 140.692C185.277 142.953 184.987 145.344 185.182 147.721Z" fill="black"/>
<path opacity="0.05" d="M205.997 153.786V200.322H184.56C185.975 189.497 185.159 173.718 171.409 164.673C166.28 161.322 160.326 159.452 154.202 159.269C148.078 159.087 142.022 160.599 136.703 163.64C127.691 168.784 117.613 179.244 111.209 200.322H90.6109V153.786H205.997Z" fill="black"/>
<path opacity="0.05" d="M381.93 168.345C381.121 173.481 379.823 178.47 377.814 182.721C377.555 183.293 377.273 183.852 376.967 184.396C377.017 184.205 377.387 182.876 377.814 180.786C379.897 170.606 383.461 142.437 359.583 140.828C359.272 140.809 358.965 140.789 358.658 140.778C356.747 139.139 354.691 137.679 352.514 136.414H372.509C372.509 136.414 380.375 152.473 382.015 160.337C382.489 162.544 382.357 165.392 381.93 168.345Z" fill="black"/>
<path d="M377.616 184.077C377.927 182.954 389.003 142.452 360.232 140.513C331.057 138.547 327.451 160.504 324.174 190.329C324.174 190.329 232.067 197.21 182.563 211.633C182.563 211.633 194.447 179.073 172.069 164.347C166.941 160.995 160.986 159.125 154.862 158.943C148.738 158.761 142.683 160.273 137.364 163.313C126.327 169.615 113.684 183.906 108.154 215.891H53.0763C53.0763 215.891 42.583 216.548 38.9804 211.617C38.9804 211.617 24.2121 211.943 15.0519 204.079C15.0519 204.079 5.2194 202.113 13.0854 197.198C13.0854 197.198 24.2316 205.719 48.8168 207.689C48.8168 207.689 63.585 195.889 39.6372 182.783C39.6372 182.783 18.6507 183.44 10.1357 175.902C10.1357 175.902 13.1243 169.72 19.9449 162.241C29.2738 151.981 41.1606 144.383 54.3899 140.222C63.304 137.467 72.5953 136.127 81.9248 136.251L139.781 134.448C139.781 134.448 145.37 141.66 158.793 141.003C172.217 140.346 198.458 141.986 198.458 141.986H198.718L252.708 139.542C254.258 139.323 255.792 138.999 257.298 138.571C265.125 136.445 279.971 129.999 277.293 111.998L362.195 117.243C365.395 117.39 368.574 117.839 371.689 118.584C376.05 119.703 380.037 121.747 378.914 125.438C376.621 132.976 382.847 133.959 382.847 133.959C382.847 133.959 382.979 134.965 383.142 136.713C383.92 144.958 385.447 169.748 377.616 184.077Z" fill="#FF4D52"/>
<path opacity="0.05" d="M117.983 148.051C117.983 148.051 82.5777 148.378 59.2983 169.033H72.411C72.411 169.033 109.126 159.529 117.975 151.991L117.983 148.051Z" fill="black"/>
<path d="M117.652 147.721C117.652 147.721 82.2474 148.047 58.968 168.702H72.0807C72.0807 168.702 108.795 159.199 117.645 151.661L117.652 147.721Z" fill="#FFEC9F"/>
<path opacity="0.05" d="M54.7163 140.552V149.361L24.8922 163.127L20.2752 162.571C29.603 152.312 41.4884 144.714 54.7163 140.552Z" fill="black"/>
<path d="M54.3859 140.226V149.034L24.558 162.796L19.941 162.241C29.2704 151.983 41.1571 144.386 54.3859 140.226Z" fill="#FFEC9F"/>
<path opacity="0.05" d="M96.6736 180.168C96.6736 180.168 80.6112 189.998 78.9712 211.64H88.1508C88.1508 211.64 91.7574 188.044 102.247 180.168H96.6736Z" fill="black"/>
<path opacity="0.05" d="M286.477 180.825L203.211 190.655C203.211 190.655 197.704 155.608 198.722 141.974L252.712 139.53C254.26 139.315 255.793 138.995 257.298 138.571V141.823L297.945 131.993C297.945 131.993 304.832 142.149 286.477 180.825Z" fill="black"/>
<path d="M277.297 102.494C277.297 102.494 294.999 100.202 302.865 115.277L277.549 114.302L277.297 102.494Z" fill="#FF4D52"/>
<path opacity="0.05" d="M301.637 120.562C300.942 122.741 301.466 125.139 305.496 126.798C308.85 128.181 312.783 126.58 313.93 123.142C314.598 121.137 314.14 118.868 310.525 117.022C306.911 115.176 302.854 116.754 301.637 120.562Z" fill="black"/>
<path d="M10.7575 180.817C10.7575 180.817 31.7673 191.696 46.8464 187.578" stroke="#FF4D52" stroke-miterlimit="10"/>
<path d="M11.4998 186.692C11.4998 186.692 25.0749 197.159 52.5128 194.727" stroke="#FF4D52" stroke-miterlimit="10"/>
<path d="M12.1255 191.623C12.1255 191.623 25.5918 203.306 53.2628 199.603" stroke="#FF4D52" stroke-miterlimit="10"/>
<path opacity="0.05" d="M301.851 113.517C301.851 113.517 290.899 122.971 280.903 127.245C280.903 127.245 296.084 129.945 301.851 113.517Z" fill="black"/>
<path opacity="0.1" d="M185.827 141.341C185.827 141.341 237.796 146.248 257.461 141.66C257.461 141.66 258.51 142.355 252.249 139.55L185.827 141.341Z" fill="black"/>
<path opacity="0.05" d="M383.146 136.713C379.909 134.588 374.775 130.178 375.475 125.271C375.824 122.811 374.083 120.511 371.693 118.58C376.054 119.699 380.041 121.743 378.918 125.434C376.625 132.972 382.851 133.955 382.851 133.955C382.851 133.955 382.979 134.965 383.146 136.713Z" fill="black"/>
<path opacity="0.02" d="M111.352 159.424L106.98 173.299L106.875 173.571C106.289 173.703 93.8988 176.551 91.2249 177.425H90.9568L97.8784 159.105L98.0766 158.577L100.327 158.721L111.352 159.424Z" fill="black"/>
</g>
<defs>
<linearGradient id="paint0_linear_5_60" x1="196.919" y1="231.942" x2="196.919" y2="94.1716" gradientUnits="userSpaceOnUse">
<stop stop-color="#808080" stop-opacity="0.25"/>
<stop offset="0.54" stop-color="#808080" stop-opacity="0.12"/>
<stop offset="1" stop-color="#808080" stop-opacity="0.1"/>
</linearGradient>
<linearGradient id="paint1_linear_5_60" x1="226.575" y1="197.007" x2="253.176" y2="98.1921" gradientUnits="userSpaceOnUse">
<stop stop-color="#808080" stop-opacity="0.25"/>
<stop offset="0.54" stop-color="#808080" stop-opacity="0.12"/>
<stop offset="1" stop-color="#808080" stop-opacity="0.1"/>
</linearGradient>
<clipPath id="clip0_5_60">
<rect width="398" height="305" fill="white"/>
</clipPath>
</defs>
</svg>
