<svg width="431" height="211" viewBox="0 0 431 211" fill="none" xmlns="http://www.w3.org/2000/svg">
<g clip-path="url(#clip0_3_184)">
<path d="M71.3308 149.636C70.0048 149.638 68.7335 150.164 67.7959 151.098C66.8582 152.033 66.3308 153.301 66.3293 154.622V166.287C66.3308 167.609 66.8582 168.877 67.7959 169.812C68.7335 170.746 70.0048 171.272 71.3308 171.274H77.6747C79.0008 171.272 80.2721 170.746 81.2097 169.812C82.1473 168.877 82.6748 167.609 82.6762 166.287V154.622C82.6748 153.301 82.1473 152.033 81.2097 151.098C80.2721 150.164 79.0008 149.638 77.6747 149.636H71.3308Z" fill="#3F3D56"/>
<path d="M188.6 171.662H182.256C180.827 171.66 179.457 171.093 178.446 170.086C177.436 169.078 176.867 167.712 176.865 166.287V154.622C176.867 153.198 177.436 151.832 178.446 150.824C179.457 149.817 180.827 149.25 182.256 149.248H188.6C190.029 149.25 191.399 149.817 192.41 150.824C193.421 151.832 193.989 153.198 193.991 154.622V166.287C193.989 167.712 193.421 169.078 192.41 170.086C191.399 171.093 190.029 171.66 188.6 171.662Z" fill="#3F3D56"/>
<path d="M184.391 162.322H75.1508C70.1793 162.322 66.1346 159.4 66.1346 155.809V134.867L71.5568 129.175H189.039L193.407 134.879V155.809C193.407 159.4 189.362 162.322 184.391 162.322Z" fill="#CCCCCC"/>
<path d="M188.53 139.651H72.1798L70.9974 121.577L71.7498 119.728L76.1233 108.999H183.799L189.712 121.182L188.53 139.651Z" fill="#CCCCCC"/>
<path d="M189.515 121.221L188.647 134.801H163.048V124.713L188.787 119.723L189.515 121.221Z" fill="white"/>
<path d="M97.2719 124.713V134.801H72.0585L71.1943 121.609L71.9301 119.801L97.2719 124.713Z" fill="white"/>
<path d="M183.15 112.103H76.771L88.1171 74.3996C88.5798 72.8425 89.5328 71.4751 90.8351 70.4994C92.1375 69.5238 93.7202 68.9918 95.3492 68.9819L165.8 68.3129C167.502 68.2965 169.161 68.8484 170.512 69.8808C171.863 70.9131 172.829 72.3666 173.256 74.0095L183.15 112.103Z" fill="#CCCCCC"/>
<path d="M174.96 108.537L84.943 107.473C84.8292 107.472 84.7173 107.444 84.6163 107.392C84.5153 107.339 84.428 107.264 84.3615 107.172C84.295 107.08 84.251 106.974 84.2332 106.862C84.2154 106.75 84.2242 106.635 84.259 106.527L92.8885 79.6861C92.9356 79.5398 93.028 79.4121 93.1525 79.3216C93.277 79.2311 93.4271 79.1823 93.5812 79.1823H165.984C166.138 79.1823 166.288 79.231 166.413 79.3215C166.537 79.412 166.63 79.5396 166.677 79.6858L175.662 107.591C175.697 107.7 175.706 107.816 175.687 107.93C175.668 108.043 175.623 108.151 175.554 108.243C175.486 108.336 175.396 108.411 175.293 108.462C175.19 108.513 175.076 108.539 174.96 108.537Z" fill="white"/>
<path d="M76.8381 111.327H60.8804V107.83C60.8816 106.7 61.3326 105.616 62.1344 104.817C62.9362 104.017 64.0233 103.568 65.1572 103.566H76.8381V111.327Z" fill="#CCCCCC"/>
<path d="M199.05 111.327H183.093V103.566H194.774C195.908 103.568 196.995 104.017 197.796 104.817C198.598 105.616 199.049 106.7 199.05 107.83V111.327Z" fill="#CCCCCC"/>
<path d="M59.0135 165.834L-18.9995 193.772L-18.6683 194.691L59.3446 166.753L59.0135 165.834Z" fill="#3F3D56"/>
<path d="M200.426 165.836L200.095 166.755L278.11 194.686L278.441 193.767L200.426 165.836Z" fill="#3F3D56"/>
<path d="M134.3 186.093H129.631V180.081H134.3V186.093ZM134.3 174.068H129.631V168.055H134.3V174.068Z" fill="#E6E6E6"/>
<path d="M134.3 211H129.631V204.987H134.3V211ZM134.3 198.974H129.631V192.962H134.3V198.974Z" fill="#E6E6E6"/>
<path d="M339.478 190.23H334.335L331.887 170.454H339.478V190.23Z" fill="#FFB8B8"/>
<path d="M340.789 195.2H324.206V194.991C324.208 193.285 324.889 191.649 326.099 190.443C327.309 189.236 328.95 188.558 330.661 188.556H340.789L340.789 195.2Z" fill="#2F2E41"/>
<path d="M405.798 180.515L401.389 183.155L389.075 167.461L395.581 163.563L405.798 180.515Z" fill="#FFB8B8"/>
<path d="M395.275 192.615L395.167 192.436C394.288 190.973 394.026 189.221 394.44 187.566C394.854 185.911 395.91 184.487 397.376 183.606L406.058 178.407L409.49 184.101L395.275 192.615Z" fill="#2F2E41"/>
<path d="M340.815 186.149L340.726 186.149C338.224 186.141 335.725 185.997 333.238 185.719C332.291 185.626 331.263 185.524 330.024 185.423L329.982 185.415C329.137 185.165 329.113 177.264 329.472 150.221C329.655 136.369 329.863 120.67 329.615 110.672L329.613 110.573L329.687 110.509C338.862 102.554 350.643 99.5719 362.862 102.112L362.953 102.131L363 102.211C368.055 110.736 375.686 123.017 383.067 134.894C400.009 162.158 404.855 170.176 404.323 170.781L404.259 170.83C403.103 171.407 402.234 171.851 401.495 172.228C399.023 173.492 397.999 174.016 392.5 176.273L392.364 176.329L392.265 176.221C375.074 157.442 360.769 136.465 351.92 117.073C350.886 123.693 349.631 132.338 348.305 141.472C344.492 167.737 341.914 185.033 340.877 186.086L340.815 186.149Z" fill="#2F2E41"/>
<path d="M367.515 26.8129C369.246 19.6866 370.713 11.649 367.448 5.08561C365.183 0.53162 356.802 -1.00196 351.998 0.638659C347.193 2.27928 343.72 6.73041 342.192 11.5835C340.665 16.4367 340.842 21.6663 341.508 26.7115C350.344 26.5422 359.179 26.373 367.515 26.8129Z" fill="#2F2E41"/>
<path d="M352.605 26.811C358.295 26.811 362.908 22.2123 362.908 16.5396C362.908 10.8669 358.295 6.26825 352.605 6.26825C346.914 6.26825 342.302 10.8669 342.302 16.5396C342.302 22.2123 346.914 26.811 352.605 26.811Z" fill="#FFB8B8"/>
<path d="M365.2 14.4237C365.233 12.695 364.917 10.9774 364.271 9.37291C363.624 7.76841 362.661 6.30979 361.438 5.08371C360.215 3.85764 358.758 2.88912 357.152 2.23572C355.546 1.58231 353.825 1.25735 352.091 1.28014C350.357 1.30293 348.645 1.67302 347.057 2.36839C345.469 3.06377 344.037 4.07025 342.847 5.32804C341.657 6.58583 340.733 8.06925 340.129 9.69017C339.526 11.3111 339.255 13.0364 339.333 14.7637C348.152 14.7824 356.971 14.801 365.2 14.4237Z" fill="#2F2E41"/>
<path d="M345.447 112.692C355.697 112.646 365.88 114.346 375.557 117.717C375.893 101.527 370.302 85.3056 360.192 73.1708L360.116 73.0801L360.155 72.9688C362.856 65.1903 365.647 57.1503 368.141 49.15L368.103 49.0156C366.354 42.8164 362.599 36.552 356.625 29.8641C355.977 29.1948 355.098 28.7962 354.166 28.7492C353.234 28.7021 352.319 29.0101 351.607 29.6107C340.988 39.315 335.214 53.8551 336.538 67.5572L336.542 67.5974L336.531 67.6364C331.853 83.4354 330.155 91.5502 328.657 98.7098C327.564 103.933 326.617 108.455 324.717 114.917C331.528 113.439 338.477 112.694 345.447 112.692Z" fill="#3F3D56"/>
<path opacity="0.1" d="M360.538 62.7485L345.32 95.7764L336.627 87.0039L360.538 62.7485Z" fill="black"/>
<path d="M326.381 81.0936L327.442 83.1489C327.451 83.1679 327.453 83.19 327.447 83.2103C327.44 83.2307 327.426 83.2476 327.407 83.2574L327.356 83.2837L332.883 93.9901C333.036 94.2864 333.064 94.6311 332.962 94.9484C332.86 95.2658 332.636 95.5297 332.339 95.6822L325.628 99.1252C325.481 99.2006 325.321 99.2465 325.156 99.2601C324.991 99.2737 324.825 99.2548 324.667 99.2044C324.51 99.1541 324.363 99.0733 324.237 98.9666C324.111 98.86 324.007 98.7296 323.931 98.5829L318.598 88.2519L318.561 88.2709C318.547 88.2778 318.532 88.2791 318.517 88.2746C318.503 88.27 318.491 88.26 318.484 88.2466L317.88 87.0769C317.877 87.0702 317.875 87.063 317.874 87.0555C317.873 87.0481 317.874 87.0405 317.876 87.0334C317.879 87.0263 317.882 87.0197 317.887 87.014C317.892 87.0083 317.898 87.0035 317.905 87.0001L317.942 86.9811L317.714 86.5405L317.677 86.5597C317.663 86.5669 317.646 86.5682 317.631 86.5633C317.616 86.5584 317.604 86.5478 317.596 86.5337L317.001 85.38C316.994 85.366 316.992 85.3497 316.997 85.3346C317.002 85.3196 317.013 85.3071 317.027 85.2999L317.064 85.2807L316.753 84.6793L316.715 84.6988C316.703 84.7052 316.689 84.7064 316.675 84.7022C316.662 84.6979 316.651 84.6886 316.644 84.6761L316.319 84.0464C316.313 84.0339 316.311 84.0194 316.316 84.006C316.32 83.9926 316.329 83.9815 316.342 83.975L316.38 83.9555L315.722 82.6807C315.569 82.3845 315.54 82.0399 315.642 81.7226C315.744 81.4054 315.968 81.1416 316.265 80.9891L322.976 77.5461C323.273 77.3936 323.619 77.3651 323.937 77.4667C324.255 77.5683 324.52 77.7918 324.673 78.088L326.22 81.0851L326.272 81.0589C326.291 81.0491 326.313 81.0473 326.333 81.0538C326.354 81.0604 326.371 81.0747 326.381 81.0936Z" fill="#3F3D56"/>
<path d="M324.251 78.5842L332.394 94.3581C332.491 94.546 332.509 94.7647 332.444 94.9659C332.379 95.1672 332.237 95.3346 332.049 95.4313L325.625 98.7271C325.437 98.824 325.218 98.8424 325.016 98.7784C324.814 98.7143 324.647 98.573 324.549 98.3855L324.548 98.3834L316.405 82.6095C316.357 82.5165 316.328 82.4149 316.319 82.3106C316.31 82.2062 316.322 82.1012 316.354 82.0016C316.386 81.9019 316.438 81.8095 316.506 81.7296C316.574 81.6497 316.657 81.5839 316.75 81.536L317.711 81.0427L317.775 81.1657C317.814 81.2423 317.869 81.3105 317.935 81.3662C318.001 81.4219 318.077 81.4641 318.159 81.4904C318.242 81.5167 318.328 81.5266 318.415 81.5195C318.501 81.5124 318.585 81.4884 318.662 81.449L321.929 79.7728C322.084 79.6931 322.201 79.5553 322.254 79.3895C322.308 79.2237 322.293 79.0436 322.213 78.8889L322.149 78.7659L323.174 78.2402C323.362 78.1435 323.582 78.1253 323.783 78.1897C323.985 78.2541 324.153 78.3959 324.25 78.5837L324.251 78.5842Z" fill="#FD7C27"/>
<path d="M326.611 97.855C327.226 97.8123 327.824 97.6357 328.364 97.3376C328.903 97.0394 329.37 96.627 329.732 96.1294C330.095 95.6318 330.343 95.0611 330.46 94.4574C330.577 93.8538 330.56 93.232 330.409 92.6357L342.948 84.4458L335.797 81.366L324.986 89.6154C323.998 89.9333 323.161 90.6015 322.635 91.4934C322.108 92.3853 321.927 93.4389 322.127 94.4545C322.328 95.4702 322.895 96.3773 323.721 97.004C324.547 97.6308 325.576 97.9335 326.611 97.855Z" fill="#FFB8B8"/>
<path d="M338.676 91.9549L338.518 91.8434C335.534 89.6538 332.221 87.3895 329.017 85.1997L328.825 85.0682L328.976 84.8913C335.814 76.9154 342.66 68.5843 349.282 60.525C349.277 60.5122 349.272 60.5028 349.269 60.496L349.331 60.4644L349.358 60.4323L349.372 60.444L349.412 60.4237L349.231 60.4376L347.191 44.4824C345.347 41.9755 344.994 36.9982 347.41 33.5238C349.912 29.9246 355.206 28.72 358.739 30.9449C359.665 31.5644 360.439 32.3834 361.004 33.3414C361.569 34.2994 361.91 35.3719 362.004 36.4793C362.135 37.466 362.043 38.4693 361.736 39.4162C361.428 40.3631 360.913 41.2296 360.226 41.9524C361.094 50.3962 361.127 57.9436 361.159 65.244L361.16 65.3169L361.114 65.377C354.055 74.3172 346.302 83.2098 338.803 91.8096L338.676 91.9549Z" fill="#3F3D56"/>
<path d="M129.825 48.3978C142.619 48.3978 152.991 38.0579 152.991 25.3029C152.991 12.5479 142.619 2.20795 129.825 2.20795C117.03 2.20795 106.658 12.5479 106.658 25.3029C106.658 38.0579 117.03 48.3978 129.825 48.3978Z" fill="#FD7C27"/>
<path d="M127.617 35.0517L120.683 26.1639L124.715 23.0373L127.998 27.2456L139.089 15.5736L142.798 19.0767L127.617 35.0517Z" fill="white"/>
<path d="M430.51 195.836H313.428C313.298 195.836 313.173 195.784 313.081 195.693C312.989 195.601 312.938 195.477 312.938 195.347C312.938 195.218 312.989 195.094 313.081 195.002C313.173 194.911 313.298 194.859 313.428 194.859H430.51C430.64 194.859 430.765 194.911 430.857 195.002C430.948 195.094 431 195.218 431 195.347C431 195.477 430.948 195.601 430.857 195.693C430.765 195.784 430.64 195.836 430.51 195.836Z" fill="#3F3D56"/>
</g>
<defs>
<clipPath id="clip0_3_184">
<rect width="450" height="211" fill="white" transform="translate(-19)"/>
</clipPath>
</defs>
</svg>
