<svg width="412" height="388" viewBox="0 0 412 388" fill="none" xmlns="http://www.w3.org/2000/svg">
<path d="M194.045 168.722C191.966 164.129 192.749 159.321 195.792 157.982C198.836 156.644 202.987 159.282 205.066 163.877C205.923 165.701 206.312 167.705 206.202 169.723L214.755 189.295L205.108 193.167L197.701 173.461C196.103 172.195 194.85 170.569 194.045 168.722Z" fill="#FFAFAF"/>
<path d="M253.153 177.032C258.368 181.949 258.041 190.338 252.46 194.835L225.131 216.855C222.148 219.258 217.722 218.409 215.84 215.073C208.658 203.445 207.304 202.807 203.13 190.891L214.901 186.773L221.538 195.084L236.029 177.989C240.409 172.822 248.226 172.386 253.153 177.032Z" fill="#6C63FF"/>
<path d="M147.636 147.3V138.635H61.7779V147.3H147.636Z" fill="#DFDFDF"/>
<path d="M365.039 147.3V138.635H279.18V147.3H365.039Z" fill="#DFDFDF"/>
<path d="M109.34 108.708H94.6613C88.9684 108.708 84.3534 113.323 84.3534 119.016V173.226C84.3534 178.919 88.9684 183.534 94.6613 183.534H109.34C115.033 183.534 119.648 178.919 119.648 173.226V119.016C119.648 113.323 115.033 108.708 109.34 108.708Z" fill="#3F3D56"/>
<path d="M340.873 108.708H326.194C320.501 108.708 315.886 113.323 315.886 119.016V173.226C315.886 178.919 320.501 183.534 326.194 183.534H340.873C346.565 183.534 351.18 178.919 351.18 173.226V119.016C351.18 113.323 346.565 108.708 340.873 108.708Z" fill="#3F3D56"/>
<path d="M331.569 165.18H107.392C99.5983 165.18 92.9294 159.614 91.5352 151.947L82.9621 104.794C79.2338 84.288 86.9589 63.3958 103.127 50.2491L120.031 13.8781C123.95 5.44727 132.489 0 141.786 0H268.065C274.778 0 281.228 2.84014 285.761 7.79246L316.824 41.7314C339.549 57.0454 352.442 83.5311 350.475 110.866L347.644 150.22C347.04 158.609 339.979 165.18 331.569 165.18Z" fill="#DFDFDF"/>
<path d="M293.31 46.9423H123.942C121 46.9423 118.286 45.4705 116.681 43.006C115.076 40.5409 114.828 37.4629 116.018 34.7731L124.945 14.5895C126.304 11.5177 129.351 9.49308 132.708 9.43173L277.09 9.60751C279.839 9.58959 282.464 10.827 284.131 13.0047L300.19 33.0125C302.209 35.6499 302.549 39.1374 301.078 42.1154C299.607 45.0927 296.631 46.9423 293.31 46.9423Z" fill="white"/>
<path d="M318.709 100.238C326.896 100.238 333.533 93.6008 333.533 85.4138C333.533 77.2268 326.896 70.5899 318.709 70.5899C310.522 70.5899 303.886 77.2268 303.886 85.4138C303.886 93.6008 310.522 100.238 318.709 100.238Z" fill="white"/>
<path d="M123.883 100.238C132.07 100.238 138.707 93.6008 138.707 85.4138C138.707 77.2268 132.07 70.5899 123.883 70.5899C115.696 70.5899 109.06 77.2268 109.06 85.4138C109.06 93.6008 115.696 100.238 123.883 100.238Z" fill="white"/>
<path d="M304.239 140.827H142.589V140.474C142.589 132.105 149.398 125.297 157.766 125.297H289.062C297.43 125.297 304.239 132.105 304.239 140.474V140.827Z" fill="#3F3D56"/>
<path d="M105.503 53.3581C104.628 53.3581 103.751 53.0796 103.015 52.5171L97.0968 47.9921C96.5092 47.5427 95.7779 47.2952 95.0378 47.2952H82.1127C80.6338 47.2952 79.3086 46.5314 78.5677 45.2513C77.8268 43.9718 77.8241 42.4421 78.5603 41.1599L81.7156 35.663C82.3458 34.5649 83.4714 33.8094 84.7267 33.6418L100.898 31.4855C102.913 31.2181 104.79 32.4362 105.366 34.3829L109.431 48.0997C109.878 49.61 109.409 51.2645 108.235 52.3158C107.461 53.0079 106.483 53.3581 105.503 53.3581Z" fill="#DFDFDF"/>
<path d="M315.207 50.5345C314.227 50.5345 313.249 50.1843 312.475 49.4922C311.301 48.4409 310.832 46.7865 311.279 45.2761L315.344 31.5593C315.92 29.6112 317.8 28.389 319.812 28.6626L335.984 30.8182C337.239 30.9858 338.364 31.7413 338.994 32.8394L342.15 38.3364C342.886 39.6186 342.883 41.1482 342.142 42.4277C341.401 43.7078 340.076 44.4716 338.597 44.4716H325.672C324.932 44.4716 324.201 44.7191 323.613 45.1685L317.695 49.6935C316.959 50.256 316.082 50.5345 315.207 50.5345Z" fill="#DFDFDF"/>
<path d="M70.4425 26.7817H61.7779V382.034H70.4425V26.7817Z" fill="#DFDFDF"/>
<path d="M369.765 26.7817H361.1V382.034H369.765V26.7817Z" fill="#DFDFDF"/>
<path d="M271.391 355.507V371.598L283.557 371.99L283.05 355.507H271.391Z" fill="#FFAFAF"/>
<path d="M268.983 364.46C268.819 364.46 268.658 364.481 268.502 364.526C266.306 365.153 253.596 376.501 249.753 379.964C249.278 380.391 249.026 381.002 249.061 381.64C249.095 382.274 249.411 382.851 249.927 383.222C252.841 385.321 258.812 388.642 266.057 387.3C269.39 386.683 272.753 386.294 275.72 385.952C282.072 385.219 287.09 384.639 287.09 382.391C287.09 378.575 286.04 368.52 284.723 368.097C284.604 368.061 284.465 368.153 284.306 368.376C282.291 371.197 275.37 369.696 275.077 369.631L275 369.614L274.956 369.548C274.92 369.494 271.532 364.46 268.983 364.46Z" fill="#2F2E41"/>
<path d="M248.628 355.507V371.598L260.794 371.99L260.288 355.507H248.628Z" fill="#FFAFAF"/>
<path d="M243.722 240.317L237.247 245.223L236.069 300.561L247.058 361.001L261.383 361.59L261.776 303.897L280.221 251.307L276.493 238.944L243.722 240.317Z" fill="#2F2E41"/>
<path d="M273.942 249.737L280.221 251.307L284.735 361.001L268.448 359.628L257.655 282.115L273.942 249.737Z" fill="#2F2E41"/>
<path d="M239.942 388C234.359 388 229.822 385.532 227.4 383.868C226.668 383.366 226.215 382.568 226.157 381.679C226.098 380.782 226.448 379.923 227.116 379.322C233.129 373.913 243.531 364.749 245.631 364.149C248.352 363.369 252.005 368.574 252.475 369.264C253.235 369.419 259.465 370.61 261.223 368.148C261.559 367.679 261.873 367.658 262.08 367.724C263.959 368.326 264.719 380.42 264.719 382.391C264.719 384.989 259.805 385.557 253.002 386.342C250.041 386.684 246.685 387.071 243.365 387.686C242.189 387.904 241.045 388 239.942 388Z" fill="#2F2E41"/>
<path d="M257.178 168.642L261.648 177.647L244.753 185.807L244.96 171.37L257.178 168.642Z" fill="#FFAFAF"/>
<path d="M244.814 175.454C253.21 175.454 260.016 168.648 260.016 160.252C260.016 151.855 253.21 145.049 244.814 145.049C236.418 145.049 229.611 151.855 229.611 160.252C229.611 168.648 236.418 175.454 244.814 175.454Z" fill="#FFAFAF"/>
<path d="M244.711 182.296L260.299 173.085C271.732 181.103 281.253 182.979 281.556 196.94L279.448 230.242L279.572 244.585C279.624 250.605 274.757 255.514 268.736 255.514H246.477C240.587 255.514 236.198 250.079 237.438 244.321L241.64 224.81L237.153 186.784L244.711 182.296Z" fill="#6C63FF"/>
<path d="M260.447 167.901L257.636 169.914C257.636 169.914 256.809 161.138 255.668 160.749C254.527 160.359 252.987 162.382 252.987 162.382L251.863 165.677L248.145 164.127C248.145 164.127 243.84 161.808 242.318 161.289C240.796 160.77 241.027 156.36 241.027 156.36C241.027 156.36 222.761 158.861 225.505 148.331C225.505 148.331 226.45 140.584 228.473 142.124C230.496 143.663 230.523 139.85 230.523 139.85L235.106 138.866C235.106 138.866 241.394 130.395 253.8 137.601C266.205 144.808 260.447 167.901 260.447 167.901Z" fill="#2F2E41"/>
<path d="M228.72 201.552L224.613 200.926C223.466 200.752 222.671 199.67 222.846 198.524L223.348 195.229C221.857 196.15 220.763 197.692 220.479 199.56C220.039 202.442 221.668 205.156 224.252 206.213L220.658 229.801C220.649 229.86 220.651 229.918 220.65 229.976C217.86 230.208 215.488 232.317 215.048 235.206C214.79 236.899 215.245 238.536 216.187 239.813L216.639 236.845C216.814 235.699 217.895 234.903 219.042 235.078L223.149 235.704C224.296 235.878 225.091 236.96 224.916 238.106L224.414 241.401C225.905 240.48 226.999 238.938 227.284 237.07C227.724 234.182 226.087 231.462 223.493 230.41C223.509 230.353 223.528 230.299 223.537 230.239L227.131 206.652C229.912 206.412 232.275 204.306 232.714 201.424C232.972 199.731 232.517 198.094 231.575 196.817L231.123 199.785C230.948 200.931 229.867 201.727 228.72 201.552Z" fill="#3F3D56"/>
<path d="M221.07 222.075C216.142 221.014 212.743 217.525 213.477 214.282C214.212 211.04 218.803 209.272 223.733 210.334C225.708 210.73 227.551 211.61 229.107 212.899L249.927 217.668L247.301 227.725L227.055 221.956C225.086 222.487 223.034 222.528 221.07 222.075Z" fill="#FFAFAF"/>
<path d="M262.914 179.508C269.968 178.242 276.517 183.495 276.811 190.656L278.252 225.723C278.409 229.55 275.093 232.603 271.292 232.131C257.674 230.987 258.63 232.381 246.568 228.647L247.376 215.829L258.616 215.659L253.496 193.841C251.948 187.247 256.247 180.704 262.914 179.508Z" fill="#6C63FF"/>
</svg>
